<svg xmlns="http://www.w3.org/2000/svg" width="26.36" height="15.713" viewBox="0 0 26.36 15.713">
  <g id="Group_35" data-name="Group 35" transform="translate(0 -98.725)" opacity="0.5">
    <path id="Path_419" data-name="Path 419" d="M13.18,98.725c-5.036,0-9.6,2.755-12.974,7.231a1.043,1.043,0,0,0,0,1.246c3.37,4.481,7.938,7.237,12.974,7.237s9.6-2.755,12.974-7.231a1.043,1.043,0,0,0,0-1.246C22.784,101.48,18.217,98.725,13.18,98.725Zm.361,13.389a5.544,5.544,0,1,1,5.171-5.171A5.548,5.548,0,0,1,13.542,112.114Zm-.167-2.556a2.985,2.985,0,1,1,2.788-2.788A2.981,2.981,0,0,1,13.374,109.558Z" fill="#3e3e3e"/>
  </g>
</svg>
