<svg xmlns="http://www.w3.org/2000/svg" width="20.103" height="16.313" viewBox="0 0 20.103 16.313">
  <g id="Group_34" data-name="Group 34" transform="translate(0 -41.206)" opacity="0.5">
    <g id="Group_30" data-name="Group 30" transform="translate(0 41.206)">
      <g id="Group_29" data-name="Group 29" transform="translate(0 0)">
        <path id="Path_420" data-name="Path 420" d="M87.7,41.206H73.9a1.5,1.5,0,0,0-1.49,1.49v8.57a1.5,1.5,0,0,0,1.49,1.49H83.41l2.152,2.17a.461.461,0,0,0,.331.147.475.475,0,0,0,.478-.478V52.756H87.7a1.5,1.5,0,0,0,1.49-1.49V42.7A1.5,1.5,0,0,0,87.7,41.206ZM76.017,48.581A1.379,1.379,0,1,1,77.4,47.2,1.389,1.389,0,0,1,76.017,48.581Zm4.837,0A1.379,1.379,0,1,1,82.233,47.2,1.389,1.389,0,0,1,80.854,48.581Zm4.819,0A1.379,1.379,0,1,1,87.052,47.2,1.389,1.389,0,0,1,85.672,48.581Z" transform="translate(-69.083 -41.206)" fill="#59595a"/>
        <path id="Path_421" data-name="Path 421" d="M2.483,200.13v-2.924H.975a.981.981,0,0,0-.975.975v5.628a.967.967,0,0,0,.975,1.012H1.84v1.214a.322.322,0,0,0,.313.313.3.3,0,0,0,.221-.092l1.416-1.416h6.253a.981.981,0,0,0,.975-.975v-1.4h-6.2A2.339,2.339,0,0,1,2.483,200.13Z" transform="translate(0 -190.033)" fill="#59595a"/>
      </g>
    </g>
  </g>
</svg>
